<?xml version="1.0" encoding="UTF-8"?>
<svg version="1.1" xmlns="http://www.w3.org/2000/svg" width="512" height="512">
<path d="M0 0 C0.66854004 0.08721313 1.33708008 0.17442627 2.02587891 0.26428223 C40.71728556 5.32214573 90.36225038 12.23345118 117.74609375 42.96875 C122.00886249 49.87416976 122.43548345 56.24616083 122.38818359 64.15429688 C122.39606903 65.79000389 122.39606903 65.79000389 122.40411377 67.45875549 C122.417264 71.04556817 122.40859298 74.63193319 122.3984375 78.21875 C122.40045966 80.72163986 122.40337227 83.22452914 122.40713501 85.72741699 C122.41155163 90.96594773 122.40543695 96.20436313 122.39111328 101.44287109 C122.37478926 107.48235445 122.38007874 113.52153388 122.3965925 119.56100988 C122.41189428 125.3926828 122.4102144 131.22424106 122.4014473 137.05592346 C122.3994502 139.52779686 122.40188728 141.99967806 122.40888596 144.47154236 C122.41652932 147.92980308 122.40485501 151.38748533 122.38818359 154.84570312 C122.39425629 155.86100601 122.40032898 156.8763089 122.40658569 157.92237854 C122.36611312 162.46858126 122.17934289 166.02909195 120.28823853 170.19714355 C119.31320738 172.44997591 118.88177722 173.50618695 119.45829296 175.91427612 C120.02423632 177.24279324 120.60672702 178.56435736 121.20376015 179.87919617 C122.68731345 183.83067575 122.39021612 187.91674479 122.34057617 192.08789062 C122.34101425 193.06441589 122.34145233 194.04094116 122.34190369 195.04705811 C122.33982638 198.25033088 122.31654514 201.45306952 122.29296875 204.65625 C122.28736904 206.88683791 122.28310071 209.11742953 122.28010559 211.34802246 C122.26868641 217.20062562 122.23924431 223.05300316 122.20599365 228.90551758 C122.17522968 234.88489735 122.16158674 240.86431379 122.14648438 246.84375 C122.11437189 258.56259878 122.06321091 270.28128058 122 282 C122.90363281 281.96519531 123.80726563 281.93039062 124.73828125 281.89453125 C125.91777344 281.86746094 127.09726562 281.84039062 128.3125 281.8125 C129.48425781 281.77769531 130.65601563 281.74289062 131.86328125 281.70703125 C135 282 135 282 136.86225891 283.36045837 C138.39654973 285.57144792 138.94832348 287.646219 139.60546875 290.25390625 C139.86650391 291.27291016 140.12753906 292.29191406 140.39648438 293.34179688 C140.65751953 294.40462891 140.91855469 295.46746094 141.1875 296.5625 C141.59645508 298.16254883 141.59645508 298.16254883 142.01367188 299.79492188 C144 307.65560385 144 307.65560385 144 310 C144.61488281 310.20496094 145.22976563 310.40992188 145.86328125 310.62109375 C150.93164063 312.31054688 150.93164063 312.31054688 156 314 C158.20082004 313.03543658 158.20082004 313.03543658 160.4921875 311.5078125 C161.36230469 310.96769531 162.23242188 310.42757813 163.12890625 309.87109375 C164.03511719 309.29488281 164.94132812 308.71867187 165.875 308.125 C167.65975388 306.99576548 169.44869496 305.87311584 171.2421875 304.7578125 C172.0347998 304.2539502 172.82741211 303.75008789 173.64404297 303.23095703 C176.14437232 301.92456733 178.20275755 301.31932261 181 301 C182.81640625 302.01171875 182.81640625 302.01171875 184.5625 303.6875 C185.56990234 304.64849609 185.56990234 304.64849609 186.59765625 305.62890625 C187.78681641 306.80259766 187.78681641 306.80259766 189 308 C190.05985811 308.98971796 191.12114757 309.97790456 192.18359375 310.96484375 C193.29049819 312.01672043 194.39596822 313.07010862 195.5 314.125 C196.31126343 314.87849731 196.31126343 314.87849731 197.13891602 315.6472168 C200.91401788 319.34335434 200.91401788 319.34335434 201.31274414 322.38842773 C200.94466736 325.46205562 200.03608971 327.07509142 198.33984375 329.65234375 C197.79392578 330.51150391 197.24800781 331.37066406 196.68554688 332.25585938 C195.52080068 334.04267114 194.3515271 335.8265399 193.17773438 337.60742188 C189.94172378 342.53330694 189.94172378 342.53330694 188.94140625 348.19140625 C189.29074219 349.11824219 189.64007813 350.04507812 190 351 C190.36738281 352.79824219 190.36738281 352.79824219 190.7421875 354.6328125 C191.97772199 357.36059642 192.88570416 357.94877838 195.66503906 359.19433594 C199.130444 360.2352986 202.59395464 361.08530934 206.125 361.875 C208.52390763 362.45378406 210.92237179 363.03441038 213.3203125 363.6171875 C214.91770264 363.98239502 214.91770264 363.98239502 216.54736328 364.35498047 C219 365 219 365 220 366 C220.2895815 370.09592874 220.31393228 374.1955226 220.35009766 378.30078125 C220.36665829 379.68018464 220.39395096 381.05950216 220.43212891 382.43847656 C220.48684987 384.42460966 220.50562748 386.41163055 220.5234375 388.3984375 C220.54325684 389.59130371 220.56307617 390.78416992 220.58349609 392.01318359 C220 395 220 395 217.7487793 396.82592773 C215.32686936 397.86038594 213.04134599 398.72416527 210.49609375 399.38671875 C209.67302734 399.60263672 208.84996094 399.81855469 208.00195312 400.04101562 C207.15568359 400.25435547 206.30941406 400.46769531 205.4375 400.6875 C204.58736328 400.91244141 203.73722656 401.13738281 202.86132812 401.36914062 C199.04159679 402.3547811 195.98851061 403 192 403 C191.87625 403.9075 191.7525 404.815 191.625 405.75 C191 409 191 409 189.875 411.0625 C188.66391815 413.74418125 189.24428812 415.1840551 190 418 C191.11738879 420.27003763 191.11738879 420.27003763 192.5390625 422.46875 C193.03664063 423.28730469 193.53421875 424.10585938 194.046875 424.94921875 C195.10112673 426.65324444 196.16105738 428.35376943 197.2265625 430.05078125 C197.9690625 431.27861328 197.9690625 431.27861328 198.7265625 432.53125 C199.41613037 433.63823242 199.41613037 433.63823242 200.11962891 434.76757812 C201.25194828 437.63888382 200.97796188 439.09834198 200 442 C198.77246094 443.68164063 198.77246094 443.68164063 197.234375 445.15625 C196.39326172 445.97802734 196.39326172 445.97802734 195.53515625 446.81640625 C194.94605469 447.37199219 194.35695313 447.92757813 193.75 448.5 C193.17636719 449.05558594 192.60273438 449.61117188 192.01171875 450.18359375 C190.87922167 451.27997475 189.73803711 452.36746094 188.58789062 453.4453125 C186.77668657 455.1673301 186.77668657 455.1673301 184.515625 457.96875 C182 460 182 460 178.734375 460.125 C174.07440553 458.72115983 170.3514596 456.57683325 166.25 454 C164.75663714 453.08100747 163.26190035 452.16424284 161.765625 451.25 C161.11368164 450.84265625 160.46173828 450.4353125 159.79003906 450.015625 C157.24151694 448.569655 155.56332005 447.90193237 152.64257812 448.41040039 C147.30556921 450.16920894 147.30556921 450.16920894 143.65625 454.22216797 C142.73467902 456.94625361 142.07610031 459.62036947 141.5 462.4375 C141.05361139 464.31156255 140.60574123 466.18527294 140.15625 468.05859375 C139.97900391 468.88673584 139.80175781 469.71487793 139.61914062 470.56811523 C137.97535354 477.02464646 137.97535354 477.02464646 136 479 C131.88422411 479.21789186 127.76535077 479.18579188 123.64428711 479.18530273 C121.57449736 479.18748734 119.50524207 479.20563491 117.43554688 479.22460938 C116.13810547 479.22654297 114.84066406 479.22847656 113.50390625 479.23046875 C112.30580322 479.23457764 111.1077002 479.23868652 109.87329102 479.24291992 C107 479 107 479 105 477 C104.23803711 474.69335937 104.23803711 474.69335937 103.52734375 471.84375 C103.26759766 470.82152344 103.00785156 469.79929687 102.74023438 468.74609375 C102.47533203 467.67488281 102.21042969 466.60367187 101.9375 465.5 C101.40682717 463.38494427 100.87436379 461.27033674 100.33984375 459.15625 C100.10644287 458.21587891 99.87304199 457.27550781 99.63256836 456.30664062 C99.07971133 453.99714125 99.07971133 453.99714125 98 452 C96.29261253 451.04082698 96.29261253 451.04082698 94 451 C90.95980947 452.19389511 90.95980947 452.19389511 87.625 454 C77.80947886 458.85805085 67.49899042 461.96866741 57 465 C55.78449463 465.35191406 55.78449463 465.35191406 54.54443359 465.7109375 C21.05441271 475.19384993 -14.95103208 479.08171237 -49.70703125 479.203125 C-51.07293733 479.21014862 -52.43884309 479.21723543 -53.80474854 479.22438049 C-58.14067058 479.24375894 -62.47653901 479.24881405 -66.8125 479.25 C-67.92071169 479.25066278 -67.92071169 479.25066278 -69.05131149 479.25133896 C-91.17867578 479.25827874 -113.02775815 478.96492205 -135 476 C-136.36382015 475.82578004 -137.72775652 475.6524679 -139.09179688 475.47998047 C-177.58880355 470.55609052 -226.28478144 463.68082466 -253.4921875 433.1875 C-258.09277183 426.51307714 -258.4349015 420.77786517 -258.38818359 412.86743164 C-258.39344055 411.76735275 -258.39869751 410.66727386 -258.40411377 409.53385925 C-258.41728237 405.90914576 -258.40858582 402.28487397 -258.3984375 398.66015625 C-258.40045927 396.13341691 -258.40337157 393.60667814 -258.40713501 391.0799408 C-258.41155425 385.78833921 -258.40542848 380.49689478 -258.39111328 375.20532227 C-258.37479703 369.10394472 -258.38007167 363.00286813 -258.3965925 356.9014979 C-258.41189435 351.01270571 -258.41021401 345.12400628 -258.4014473 339.23519707 C-258.39944986 336.73820389 -258.40188849 334.241203 -258.40888596 331.74421883 C-258.416529 328.2499285 -258.40485503 324.75621073 -258.38818359 321.26196289 C-258.39425629 320.23573822 -258.40032898 319.20951355 -258.40658569 318.15219116 C-258.36616045 313.56419093 -258.17540287 309.94985155 -256.28823853 305.73362732 C-254.5680957 302.05455417 -254.5680957 302.05455417 -256.28823853 298.69578552 C-256.58939198 298.12334547 -256.89054543 297.55090542 -257.20082474 296.9611187 C-258.87938057 292.84206323 -258.41406492 288.24974618 -258.38818359 283.86743164 C-258.39344055 282.76735275 -258.39869751 281.66727386 -258.40411377 280.53385925 C-258.41728237 276.90914576 -258.40858582 273.28487397 -258.3984375 269.66015625 C-258.40045927 267.13341691 -258.40337157 264.60667814 -258.40713501 262.0799408 C-258.41155425 256.78833921 -258.40542848 251.49689478 -258.39111328 246.20532227 C-258.37479703 240.10394472 -258.38007167 234.00286813 -258.3965925 227.9014979 C-258.41189435 222.01270571 -258.41021401 216.12400628 -258.4014473 210.23519707 C-258.39944986 207.73820389 -258.40188849 205.241203 -258.40888596 202.74421883 C-258.416529 199.2499285 -258.40485503 195.75621073 -258.38818359 192.26196289 C-258.39425629 191.23573822 -258.40032898 190.20951355 -258.40658569 189.15219116 C-258.36616045 184.56419093 -258.17540287 180.94985155 -256.28823853 176.73362732 C-254.56847849 173.05454934 -254.56847849 173.05454934 -256.28625488 169.69380188 C-256.58741714 169.12137064 -256.88857941 168.5489394 -257.1988678 167.95916176 C-258.8786821 163.85119064 -258.43242485 159.2726342 -258.41992188 154.89916992 C-258.42839142 153.80230362 -258.43686096 152.70543732 -258.44558716 151.57533264 C-258.46892774 147.96025905 -258.46997988 144.3456119 -258.46875 140.73046875 C-258.47585393 138.2085198 -258.48355327 135.68657247 -258.49182129 133.16462708 C-258.50525981 127.88144596 -258.50701982 122.598374 -258.50097656 117.31518555 C-258.49434284 111.22961217 -258.51718099 105.14464599 -258.55429029 99.0591957 C-258.58881989 93.18106488 -258.59531345 87.30317093 -258.59120178 81.42495155 C-258.5928905 78.93517564 -258.60250895 76.44539154 -258.62034607 73.95567894 C-258.6425924 70.46630726 -258.63280278 66.97838232 -258.61523438 63.48901367 C-258.62849762 62.46997955 -258.64176086 61.45094543 -258.65542603 60.40103149 C-258.5501716 51.3596009 -255.5440715 44.577812 -249.5 37.875 C-220.69308922 11.16021123 -173.19914089 4.69768117 -136 0 C-134.85160645 -0.15098145 -133.70321289 -0.30196289 -132.52001953 -0.45751953 C-89.56290753 -5.84386375 -42.90509066 -5.73472903 0 0 Z " fill="#515E96" transform="translate(275,18)"/>
<path d="M0 0 C54.12893546 -1.27894613 131.48905502 2.13279783 174.0546875 39.13671875 C180.7733274 45.57204251 185.02082949 51.58018235 185.38095093 61.19812012 C185.3986252 63.18343516 185.40005835 65.16893867 185.38818359 67.15429688 C185.39606903 68.79000389 185.39606903 68.79000389 185.40411377 70.45875549 C185.417264 74.04556817 185.40859298 77.63193319 185.3984375 81.21875 C185.40045966 83.72163986 185.40337227 86.22452914 185.40713501 88.72741699 C185.41155163 93.96594773 185.40543695 99.20436313 185.39111328 104.44287109 C185.37478926 110.48235445 185.38007874 116.52153388 185.3965925 122.56100988 C185.41189428 128.3926828 185.4102144 134.22424106 185.4014473 140.05592346 C185.3994502 142.52779686 185.40188728 144.99967806 185.40888596 147.47154236 C185.41652932 150.92980308 185.40485501 154.38748533 185.38818359 157.84570312 C185.39425629 158.86100601 185.40032898 159.8763089 185.40658569 160.92237854 C185.36611312 165.46858126 185.17934289 169.02909195 183.28823853 173.19714355 C182.31405223 175.44844383 181.88127365 176.5049196 182.45829296 178.91104889 C183.02456789 180.23863782 183.6070601 181.55940112 184.20376015 182.87359619 C185.69425861 186.85405711 185.39005396 190.97927277 185.34057617 195.1796875 C185.34101425 196.16596634 185.34145233 197.15224518 185.34190369 198.16841125 C185.33982614 201.40414747 185.31654371 204.63935513 185.29296875 207.875 C185.28736913 210.12800819 185.28310076 212.38102005 185.28010559 214.6340332 C185.26868573 220.54581905 185.23924302 226.45738159 185.20599365 232.36907959 C185.17523116 238.40878275 185.16158705 244.44852222 185.14648438 250.48828125 C185.11437068 262.32561861 185.06320886 274.16279069 185 286 C180.05 286.33 175.1 286.66 170 287 C169.67386719 288.19496094 169.34773437 289.38992188 169.01171875 290.62109375 C168.11781493 293.88969787 167.20134413 297.1510572 166.2734375 300.41015625 C165.55065822 302.95947403 164.90156835 305.46428904 164.3515625 308.05859375 C163.51326364 311.660849 162.93731696 313.38934867 159.76953125 315.453125 C155.06450309 317.53807101 152.02335208 318.31882896 147 317 C144.76757813 315.86083984 144.76757813 315.86083984 142.53125 314.4609375 C141.71269531 313.96335937 140.89414062 313.46578125 140.05078125 312.953125 C138.34675556 311.89887327 136.64623057 310.83894262 134.94921875 309.7734375 C134.13066406 309.2784375 133.31210937 308.7834375 132.46875 308.2734375 C131.73076172 307.81372559 130.99277344 307.35401367 130.23242188 306.88037109 C127.33553732 305.73796452 125.9268382 305.99182188 123 307 C119.90975615 309.21529972 117.3150029 311.94455307 114.625 314.625 C113.87605469 315.32496094 113.12710938 316.02492188 112.35546875 316.74609375 C108.10979543 320.8708378 108.10979543 320.8708378 106.66796875 326.42578125 C108.78708985 332.11198596 112.01413188 336.99318688 115.31445312 342.06054688 C119.11918737 348.21801458 119.11918737 348.21801458 118.51953125 352.15234375 C118.01808594 353.09207031 117.51664062 354.03179687 117 355 C116.6803125 356.20785156 116.360625 357.41570312 116.03125 358.66015625 C113.38983621 363.00325008 111.18568166 363.46801238 106.41796875 364.74804688 C105.45503906 364.97556641 104.49210937 365.20308594 103.5 365.4375 C102.53707031 365.69208984 101.57414062 365.94667969 100.58203125 366.20898438 C93.65934552 368 93.65934552 368 90 368 C89.32810344 365.08444885 88.66230692 362.16773049 88 359.25 C87.80921875 358.425 87.6184375 357.6 87.421875 356.75 C87.24140625 355.95078125 87.0609375 355.1515625 86.875 354.328125 C86.70742188 353.5949707 86.53984375 352.86181641 86.3671875 352.10644531 C86 350 86 350 86 346 C85.05382812 346.19335938 84.10765625 346.38671875 83.1328125 346.5859375 C81.79695152 346.84934671 80.4610093 347.11234411 79.125 347.375 C77.21074219 347.75785156 77.21074219 347.75785156 75.2578125 348.1484375 C67.57081123 349.51934662 59.76118001 350.18375061 52 351 C49.7716284 342.00068574 47.54550469 333.00081888 45.3219595 324.0003109 C44.2885011 319.81733536 43.25437597 315.63452745 42.21850586 311.45214844 C36.98924807 290.33632137 31.87122845 269.20161573 27 248 C29.6902737 247.75261851 32.38055161 247.50528508 35.07086182 247.25830078 C37.12670904 247.06892818 39.18232071 246.87699378 41.23779297 246.68359375 C42.14674316 246.60238281 43.05569336 246.52117187 43.9921875 246.4375 C44.90339355 246.35371094 45.81459961 246.26992188 46.75341797 246.18359375 C51.17061591 245.93380184 55.57704636 245.96557747 60 246 C59.8379306 245.35616364 59.67586121 244.71232727 59.50888062 244.04898071 C57.78559006 237.20089694 56.06592557 230.35190921 54.34814453 223.50244141 C53.71100853 220.96380771 53.07302051 218.42538767 52.43408203 215.88720703 C49.22966928 203.15534347 46.06406738 190.42217718 43.1640625 177.6171875 C40.69105841 166.73297861 37.99942825 155.91064913 35.25 145.09375 C35.03822742 144.26051586 34.82645485 143.42728172 34.60826492 142.56879807 C33.07608414 136.54486705 31.53857962 130.52229935 30 124.5 C28.24646271 117.63631462 26.49514228 110.77207524 24.75 103.90625 C24.53853962 103.07456425 24.32707924 102.24287849 24.10921097 101.38599014 C21.31360679 90.37473425 18.64654394 79.3445206 16.14120483 68.26303101 C12.94876087 54.22468503 9.2651452 40.30671402 5.65185547 26.37207031 C4.71437438 22.75168194 3.78266252 19.12984629 2.8515625 15.5078125 C2.42044662 13.85653854 2.42044662 13.85653854 1.98062134 12.17190552 C1.71969696 11.15498627 1.45877258 10.13806702 1.18994141 9.09033203 C0.95933014 8.20056671 0.72871887 7.31080139 0.49111938 6.39407349 C0 4 0 4 0 0 Z " fill="#505D97" transform="translate(212,15)"/>
<path d="M0 0 C2.16335933 2.16335933 2.81166325 3.77078242 4 6.5625 C12.4610061 23.53327881 34.23947812 31.25620443 51.10498047 37.04589844 C73.65974204 44.47919311 96.54451061 48.67440967 120 52 C120.495 51.01 120.495 51.01 121 50 C121 50.99 121 51.98 121 53 C121.8979126 53.05986084 122.7958252 53.11972168 123.72094727 53.18139648 C124.96932373 53.26462158 126.2177002 53.34784668 127.50390625 53.43359375 C128.18119278 53.47850449 128.85847931 53.52341522 129.55628967 53.56968689 C132.99608343 53.79808216 136.43547699 54.03034893 139.87451172 54.27001953 C172.38196201 56.51433555 204.70241291 56.79215792 237.2109375 54.4375 C242.8195803 54.03855236 248.37895241 53.88190387 254 54 C254.3853894 55.56512329 254.3853894 55.56512329 254.77856445 57.16186523 C255.7421635 61.07098518 256.71059767 64.97889439 257.68041992 68.88647461 C258.09773456 70.57072359 258.51377604 72.2552886 258.9284668 73.94018555 C259.52830518 76.37635227 260.13287042 78.81130662 260.73828125 81.24609375 C261.01035149 82.35760048 261.01035149 82.35760048 261.28791809 83.49156189 C262.22803072 87.25319612 263.28647737 90.91778685 264.55419922 94.58300781 C265.88797132 98.49468273 266.71855316 102.34151027 267.39453125 106.42578125 C269.12115576 116.28560967 271.73242769 125.88599587 274.31958008 135.5480957 C274.93028716 137.83676266 275.53371388 140.12726264 276.13671875 142.41796875 C276.3241716 143.10755173 276.51162445 143.7971347 276.70475769 144.50761414 C277.64550331 148.0868149 278.21285954 151.29660092 278 155 C273.71039681 155.6396695 269.41800224 156.25859133 265.125 156.875 C263.9596875 157.04902344 262.794375 157.22304688 261.59375 157.40234375 C238.69553483 160.65630064 215.7457919 161.37874698 192.6497612 161.31805801 C190.46459632 161.31240847 188.27943922 161.3095939 186.0942688 161.30697632 C164.92567674 161.27012244 144.00858966 160.83488736 123 158 C121.63617985 157.82578004 120.27224348 157.6524679 118.90820312 157.47998047 C80.41119645 152.55609052 31.71521856 145.68082466 4.5078125 115.1875 C0.02621382 108.6856988 -0.42656917 103.17664642 -0.34057617 95.47485352 C-0.34101425 94.43995285 -0.34145233 93.40505219 -0.34190369 92.33879089 C-0.3398221 88.93530073 -0.31652023 85.53230983 -0.29296875 82.12890625 C-0.28737057 79.76236744 -0.28310152 77.39582515 -0.28010559 75.02928162 C-0.26867438 68.81334768 -0.23922176 62.59762544 -0.20599365 56.3817749 C-0.17525576 50.0338426 -0.16159229 43.68587596 -0.14648438 37.33789062 C-0.11435063 24.89183429 -0.06317491 12.44593478 0 0 Z " fill="#4F5D99" transform="translate(17,336)"/>
<path d="M0 0 C1.03640625 -0.02578125 2.0728125 -0.0515625 3.140625 -0.078125 C6.26759007 0.31508618 6.82360229 0.82686852 8.75 3.25 C9.64135742 5.67016602 9.64135742 5.67016602 10.35546875 8.50390625 C10.61650391 9.52291016 10.87753906 10.54191406 11.14648438 11.59179688 C11.40751953 12.65462891 11.66855469 13.71746094 11.9375 14.8125 C12.21013672 15.87919922 12.48277344 16.94589844 12.76367188 18.04492188 C14.75 25.90560385 14.75 25.90560385 14.75 28.25 C15.36488281 28.45496094 15.97976563 28.65992188 16.61328125 28.87109375 C19.9921875 29.99739583 23.37109375 31.12369792 26.75 32.25 C28.95082004 31.28543658 28.95082004 31.28543658 31.2421875 29.7578125 C32.11230469 29.21769531 32.98242188 28.67757813 33.87890625 28.12109375 C34.78511719 27.54488281 35.69132813 26.96867187 36.625 26.375 C38.40975388 25.24576548 40.19869496 24.12311584 41.9921875 23.0078125 C42.7847998 22.5039502 43.57741211 22.00008789 44.39404297 21.48095703 C46.89437232 20.17456733 48.95275755 19.56932261 51.75 19.25 C53.56640625 20.26171875 53.56640625 20.26171875 55.3125 21.9375 C55.98410156 22.57816406 56.65570313 23.21882813 57.34765625 23.87890625 C58.14042969 24.66136719 58.93320312 25.44382812 59.75 26.25 C60.80985811 27.23971796 61.87114757 28.22790456 62.93359375 29.21484375 C64.04049819 30.26672043 65.14596822 31.32010862 66.25 32.375 C66.79084229 32.87733154 67.33168457 33.37966309 67.88891602 33.8972168 C71.66401788 37.59335434 71.66401788 37.59335434 72.06274414 40.63842773 C71.69466736 43.71205562 70.78608971 45.32509142 69.08984375 47.90234375 C68.54392578 48.76150391 67.99800781 49.62066406 67.43554688 50.50585938 C66.27080068 52.29267114 65.1015271 54.0765399 63.92773438 55.85742188 C60.69172378 60.78330694 60.69172378 60.78330694 59.69140625 66.44140625 C60.04074219 67.36824219 60.39007813 68.29507813 60.75 69.25 C60.99492187 70.44882812 61.23984375 71.64765625 61.4921875 72.8828125 C62.72772199 75.61059642 63.63570416 76.19877838 66.41503906 77.44433594 C69.880444 78.4852986 73.34395464 79.33530934 76.875 80.125 C79.27390763 80.70378406 81.67237179 81.28441038 84.0703125 81.8671875 C85.13523926 82.11065918 86.20016602 82.35413086 87.29736328 82.60498047 C89.75 83.25 89.75 83.25 90.75 84.25 C91.0395815 88.34592874 91.06393228 92.4455226 91.10009766 96.55078125 C91.11665829 97.93018464 91.14395096 99.30950216 91.18212891 100.68847656 C91.23684987 102.67460966 91.25562748 104.66163055 91.2734375 106.6484375 C91.29325684 107.84130371 91.31307617 109.03416992 91.33349609 110.26318359 C90.75 113.25 90.75 113.25 88.4987793 115.07592773 C86.07686936 116.11038594 83.79134599 116.97416527 81.24609375 117.63671875 C80.42302734 117.85263672 79.59996094 118.06855469 78.75195312 118.29101562 C77.90568359 118.50435547 77.05941406 118.71769531 76.1875 118.9375 C75.33736328 119.16244141 74.48722656 119.38738281 73.61132812 119.61914062 C69.79159679 120.6047811 66.73851061 121.25 62.75 121.25 C62.564375 122.61125 62.564375 122.61125 62.375 124 C61.75 127.25 61.75 127.25 60.625 129.3125 C59.41391815 131.99418125 59.99428812 133.4340551 60.75 136.25 C61.86738879 138.52003763 61.86738879 138.52003763 63.2890625 140.71875 C63.78664063 141.53730469 64.28421875 142.35585938 64.796875 143.19921875 C65.85112673 144.90324444 66.91105738 146.60376943 67.9765625 148.30078125 C68.4715625 149.11933594 68.9665625 149.93789063 69.4765625 150.78125 C69.93627441 151.51923828 70.39598633 152.25722656 70.86962891 153.01757812 C72.00194828 155.88888382 71.72796188 157.34834198 70.75 160.25 C69.52246094 161.93164062 69.52246094 161.93164062 67.984375 163.40625 C67.42363281 163.95410156 66.86289062 164.50195312 66.28515625 165.06640625 C65.69605469 165.62199219 65.10695313 166.17757812 64.5 166.75 C63.92636719 167.30558594 63.35273438 167.86117187 62.76171875 168.43359375 C61.62922167 169.52997475 60.48803711 170.61746094 59.33789062 171.6953125 C57.52668657 173.4173301 57.52668657 173.4173301 55.265625 176.21875 C52.75 178.25 52.75 178.25 49.484375 178.375 C44.82440553 176.97115983 41.1014596 174.82683325 37 172.25 C35.50663714 171.33100747 34.01190035 170.41424284 32.515625 169.5 C31.86368164 169.09265625 31.21173828 168.6853125 30.54003906 168.265625 C27.99151694 166.819655 26.31332005 166.15193237 23.39257812 166.66040039 C18.05556921 168.41920894 18.05556921 168.41920894 14.40625 172.47216797 C13.48467902 175.19625361 12.82610031 177.87036947 12.25 180.6875 C11.80361139 182.56156255 11.35574123 184.43527294 10.90625 186.30859375 C10.72900391 187.13673584 10.55175781 187.96487793 10.36914062 188.81811523 C8.72535354 195.27464646 8.72535354 195.27464646 6.75 197.25 C2.63422411 197.46789186 -1.48464923 197.43579188 -5.60571289 197.43530273 C-7.67550264 197.43748734 -9.74475793 197.45563491 -11.81445312 197.47460938 C-13.11189453 197.47654297 -14.40933594 197.47847656 -15.74609375 197.48046875 C-17.54324829 197.48663208 -17.54324829 197.48663208 -19.37670898 197.49291992 C-22.25 197.25 -22.25 197.25 -24.25 195.25 C-25.01196289 192.94335938 -25.01196289 192.94335938 -25.72265625 190.09375 C-25.98240234 189.07152344 -26.24214844 188.04929687 -26.50976562 186.99609375 C-26.77466797 185.92488281 -27.03957031 184.85367188 -27.3125 183.75 C-27.84317283 181.63494427 -28.37563621 179.52033674 -28.91015625 177.40625 C-29.14355713 176.46587891 -29.37695801 175.52550781 -29.61743164 174.55664062 C-30.47932266 171.30683228 -30.47932266 171.30683228 -32.921875 169.1796875 C-33.60765625 168.83164062 -34.2934375 168.48359375 -35 168.125 C-36.01320313 167.59519531 -36.01320313 167.59519531 -37.046875 167.0546875 C-39.6793393 166.09318458 -41.45411899 166.02197991 -44.25 166.25 C-46.6382286 167.33629636 -46.6382286 167.33629636 -48.9375 168.91015625 C-49.80117188 169.45607422 -50.66484375 170.00199219 -51.5546875 170.56445312 C-53.35334791 171.73097564 -55.15022355 172.90025465 -56.9453125 174.07226562 C-57.80898438 174.61689453 -58.67265625 175.16152344 -59.5625 175.72265625 C-60.34238281 176.23062744 -61.12226563 176.73859863 -61.92578125 177.26196289 C-64.86577126 178.51176747 -66.25605071 178.28362173 -69.25 177.25 C-70.94750977 176.02246094 -70.94750977 176.02246094 -72.44140625 174.484375 C-72.99376953 173.92363281 -73.54613281 173.36289062 -74.11523438 172.78515625 C-74.67533203 172.19605469 -75.23542969 171.60695313 -75.8125 171 C-76.37646484 170.42636719 -76.94042969 169.85273438 -77.52148438 169.26171875 C-79.12528619 167.61477373 -80.69350029 165.94159995 -82.25 164.25 C-83.04277344 163.38890625 -83.83554687 162.5278125 -84.65234375 161.640625 C-86.59690349 158.73091702 -86.92127736 157.68209479 -86.25 154.25 C-85.00898803 151.62004086 -83.50123942 149.19864623 -81.9375 146.75 C-81.53337891 146.09902344 -81.12925781 145.44804687 -80.71289062 144.77734375 C-78.98580756 141.99716125 -77.25277888 139.25399392 -75.3828125 136.56640625 C-74.02511738 134.32678491 -74.02511738 134.32678491 -74.54296875 131.93359375 C-74.83816406 131.19238281 -75.13335937 130.45117188 -75.4375 129.6875 C-75.71980469 128.94371094 -76.00210937 128.19992187 -76.29296875 127.43359375 C-76.60878906 126.71300781 -76.92460937 125.99242187 -77.25 125.25 C-77.48960449 124.57791504 -77.72920898 123.90583008 -77.97607422 123.21337891 C-79.78091011 120.43175946 -81.39253249 120.34470299 -84.58984375 119.65234375 C-85.65267578 119.40806641 -86.71550781 119.16378906 -87.81054688 118.91210938 C-89.48213867 118.55342773 -89.48213867 118.55342773 -91.1875 118.1875 C-93.386278 117.70639768 -95.58302862 117.21590784 -97.77734375 116.71484375 C-98.75437256 116.504646 -99.73140137 116.29444824 -100.73803711 116.07788086 C-103.48956315 115.17104591 -104.6576622 114.66616518 -106.25 112.25 C-106.62231445 109.46264648 -106.62231445 109.46264648 -106.61328125 106.12109375 C-106.61263672 104.92162109 -106.61199219 103.72214844 -106.61132812 102.48632812 C-106.59521484 101.23271484 -106.57910156 99.97910156 -106.5625 98.6875 C-106.56572266 97.43001953 -106.56894531 96.17253906 -106.57226562 94.87695312 C-106.51688058 85.51688058 -106.51688058 85.51688058 -104.25 83.25 C-101.95922852 82.47216797 -101.95922852 82.47216797 -99.12890625 81.7421875 C-98.11119141 81.47792969 -97.09347656 81.21367187 -96.04492188 80.94140625 C-94.97822266 80.67199219 -93.91152344 80.40257812 -92.8125 80.125 C-91.74966797 79.84785156 -90.68683594 79.57070313 -89.59179688 79.28515625 C-81.66671798 77.25 -81.66671798 77.25 -78.25 77.25 C-77.76891725 75.83398286 -77.29021859 74.41715563 -76.8125 73 C-76.54566406 72.21109375 -76.27882813 71.4221875 -76.00390625 70.609375 C-75.75511719 69.83078125 -75.50632812 69.0521875 -75.25 68.25 C-75.01732422 67.64051514 -74.78464844 67.03103027 -74.54492188 66.40307617 C-74.12826592 63.36128074 -75.18568381 62.03274475 -76.77734375 59.44140625 C-77.32197266 58.52939453 -77.86660156 57.61738281 -78.42773438 56.67773438 C-79.29881836 55.25944336 -79.29881836 55.25944336 -80.1875 53.8125 C-81.33159379 51.94487874 -82.46612028 50.07135448 -83.58984375 48.19140625 C-84.09894287 47.36326416 -84.60804199 46.53512207 -85.13256836 45.68188477 C-86.42554907 42.86794969 -86.74423621 41.30821878 -86.25 38.25 C-83.8077958 34.74330416 -80.66059001 31.87293928 -77.625 28.875 C-76.81675781 28.03066406 -76.00851562 27.18632812 -75.17578125 26.31640625 C-74.38300781 25.52363281 -73.59023438 24.73085938 -72.7734375 23.9140625 C-72.05075684 23.18654785 -71.32807617 22.4590332 -70.58349609 21.70947266 C-68.25 20.25 -68.25 20.25 -65.25268555 20.36230469 C-62.36157857 21.2170136 -60.22358695 22.1877078 -57.68359375 23.7890625 C-56.86826172 24.28664063 -56.05292969 24.78421875 -55.21289062 25.296875 C-53.52297223 26.35291063 -51.83548156 27.41284074 -50.15039062 28.4765625 C-48.92932617 29.2190625 -48.92932617 29.2190625 -47.68359375 29.9765625 C-46.95197021 30.43627441 -46.22034668 30.89598633 -45.46655273 31.36962891 C-42.62813484 32.4969926 -41.15525782 32.07149852 -38.25 31.25 C-37.54399658 31.11432617 -36.83799316 30.97865234 -36.1105957 30.83886719 C-33.84835417 30.22498426 -32.18111094 29.59273797 -30.25 28.25 C-28.60520352 25.14055503 -28.043737 21.94441594 -27.4375 18.5 C-27.08234319 16.73325632 -26.72175384 14.96759513 -26.35546875 13.203125 C-26.09902588 11.94145508 -26.09902588 11.94145508 -25.83740234 10.65429688 C-25.01724152 7.29729615 -23.73502572 4.36472442 -22.25 1.25 C-14.84041447 0.67609019 -7.43127408 0.16755973 0 0 Z " fill="#6FC0F8" transform="translate(404.25,299.75)"/>
<path d="M0 0 C2.22950367 0.268045 4.45857243 0.53970588 6.6875 0.8125 C7.41243652 0.90088135 8.13737305 0.9892627 8.88427734 1.08032227 C12.73484551 1.55909661 16.57157913 2.07687018 20.40234375 2.6953125 C58.09036569 8.718018 95.95666176 8.3870629 134 8 C137.13245265 16.67649544 139.19097586 25.59916408 141.34375 34.5546875 C141.75787901 36.26434406 142.17239602 37.97390668 142.58728027 39.68338013 C143.67440825 44.16634457 144.75721309 48.6503409 145.83880615 53.13464355 C147.56839459 60.30302367 149.30394769 67.46995947 151.04072571 74.63660049 C151.6421509 77.12143597 152.24133294 79.60680397 152.84020996 82.09225464 C153.21414963 83.63953477 153.58836751 85.18674771 153.96289062 86.73388672 C154.22751728 87.82916089 154.22751728 87.82916089 154.49748993 88.94656181 C155.70730979 93.91229191 157.03540895 98.83335945 158.49645996 103.73196411 C159.0477672 106.21515216 159.08824667 108.4642411 159 111 C141.14877129 113.09150839 123.36911206 113.39619671 105.42212677 113.37695312 C103.10292163 113.37498123 100.7837429 113.37697219 98.46453857 113.37939453 C74.46016566 113.38873061 50.79516641 112.41162348 27 109 C24.18793984 102.15032509 22.53757351 95.21874597 20.9375 88 C20.42640229 85.72902681 19.91469783 83.45819007 19.40234375 81.1875 C19.16370605 80.1253125 18.92506836 79.063125 18.67919922 77.96875 C17.839331 74.29772283 16.93435499 70.64800798 16 67 C15.39341553 66.91024902 14.78683105 66.82049805 14.16186523 66.72802734 C-46.02988488 57.66229062 -46.02988488 57.66229062 -57.703125 44.0078125 C-59.38390859 41.4056355 -59.53270917 40.04405237 -59 37 C-57.5 34.625 -57.5 34.625 -55 33 C-48.00134749 33.34472172 -41.68866648 35.53357375 -35.0625 37.6875 C-25.89997427 40.58724084 -16.72290834 43.2031492 -7.375 45.4375 C-6.35156494 45.68395264 -5.32812988 45.93040527 -4.27368164 46.18432617 C1.14440745 47.45093339 6.46473877 48.42806683 12 49 C11.64083496 47.88057007 11.64083496 47.88057007 11.27441406 46.73852539 C8.65216872 38.41169064 6.38485084 30.03737685 4.28027344 21.56713867 C3.74243319 19.40711083 3.19568954 17.24945714 2.6484375 15.09179688 C2.30155163 13.70586214 1.95517786 12.3197991 1.609375 10.93359375 C1.29967773 9.69665771 0.98998047 8.45972168 0.67089844 7.18530273 C0 4 0 4 0 0 Z " fill="#6A75A8" transform="translate(105,255)"/>
<path d="M0 0 C0.84369141 0.22139648 1.68738281 0.44279297 2.55664062 0.67089844 C20.27429838 5.29017926 37.84704959 9.4400089 56 12 C56.93537598 12.13744629 57.87075195 12.27489258 58.83447266 12.41650391 C84.45849492 16.16389056 110.14457049 17.36178651 136 18 C138.49157392 24.22824664 140.22537772 30.45006793 141.78515625 36.96875 C142.17148224 38.55570175 142.17148224 38.55570175 142.56561279 40.17471313 C143.40237518 43.6154086 144.23246104 47.05767702 145.0625 50.5 C146.22192965 55.27913951 147.38448503 60.05751728 148.546875 64.8359375 C148.98209221 66.62824295 148.98209221 66.62824295 149.42610168 68.45675659 C151.27867588 76.07558337 153.16186703 83.68601074 155.078125 91.2890625 C155.313535 92.22381409 155.54894501 93.15856567 155.79148865 94.12164307 C156.6808502 97.64946546 157.57133181 101.17698199 158.46829224 104.70288086 C159.07157561 107.07464236 159.67085099 109.44738574 160.26953125 111.8203125 C160.53573273 112.85715683 160.53573273 112.85715683 160.80731201 113.91494751 C161.5079668 116.70240848 162 119.11108306 162 122 C89.87527841 122.87766455 89.87527841 122.87766455 59 118 C58.31097595 117.89155762 57.6219519 117.78311523 56.91204834 117.67138672 C36.71247061 114.45974327 36.71247061 114.45974327 27 112 C26.71278076 110.8039917 26.42556152 109.6079834 26.12963867 108.37573242 C25.06129908 103.93948453 23.9789507 99.50675442 22.89233398 95.07495117 C22.42398314 93.15628631 21.95943779 91.23668837 21.4987793 89.31616211 C20.83599948 86.5558875 20.15960982 83.79925708 19.48046875 81.04296875 C19.27721481 80.18350143 19.07396088 79.32403412 18.86454773 78.43852234 C18.6645668 77.63791885 18.46458588 76.83731537 18.25854492 76.01245117 C18.08755783 75.3085173 17.91657074 74.60458344 17.74040222 73.87931824 C16.85657182 71.63594493 15.86340728 70.51659815 14 69 C11.0011097 68.0443446 11.0011097 68.0443446 7.5 67.3125 C1.064874 65.74426927 -5.00724942 63.59559413 -11.125 61.0625 C-11.93001953 60.73870361 -12.73503906 60.41490723 -13.56445312 60.08129883 C-18.26304701 58.08776105 -21.76442031 56.1044528 -25 52 C-25.06682582 48.12410244 -24.83569448 45.99045271 -22.3125 43 C-16.32825796 40.41221966 -7.88031942 44.88549344 -1.98828125 46.828125 C-0.77205078 47.22257812 -0.77205078 47.22257812 0.46875 47.625 C1.19513672 47.86476562 1.92152344 48.10453125 2.66992188 48.3515625 C5.42283134 49.11766974 8.17699762 49.56975089 11 50 C10.55346069 48.10109009 10.55346069 48.10109009 10.09790039 46.16381836 C8.98969706 41.44757309 7.88549416 36.73039862 6.7824707 32.01293945 C6.30536466 29.97492495 5.82718756 27.93716087 5.34790039 25.8996582 C4.65746926 22.96371275 3.97094958 20.02687552 3.28515625 17.08984375 C3.07157974 16.18540024 2.85800323 15.28095673 2.63795471 14.34910583 C1.52764963 9.57592536 0.60543996 4.86379758 0 0 Z " fill="#6B76A8" transform="translate(71,117)"/>
<path d="M0 0 C13.20471929 51.320463 13.20471929 51.320463 16.80957031 67.55078125 C18.28007053 74.08929502 19.89842616 80.58199582 21.57421875 87.0703125 C21.80370712 87.95904053 22.0331955 88.84776855 22.26963806 89.76342773 C23.42136534 94.21405306 24.58146327 98.66235079 25.75073242 103.10839844 C26.1750115 104.73631664 26.59924848 106.36424582 27.0234375 107.9921875 C27.22309616 108.74194855 27.42275482 109.49170959 27.62846375 110.26419067 C28.51029818 113.66152742 29 116.46113673 29 120 C-12.95962704 120.8782876 -54.35931679 116.75119559 -95 106 C-96.01239746 105.74379883 -97.02479492 105.48759766 -98.06787109 105.22363281 C-99.05996582 104.96678711 -100.05206055 104.70994141 -101.07421875 104.4453125 C-102.41939575 104.10137451 -102.41939575 104.10137451 -103.79174805 103.75048828 C-106 103 -106 103 -108 101 C-108.73842171 98.62939851 -109.37988214 96.2958105 -109.97119141 93.88818359 C-110.24960625 92.79046883 -110.24960625 92.79046883 -110.53364563 91.670578 C-111.14628417 89.24815705 -111.74893978 86.82336769 -112.3515625 84.3984375 C-112.7740773 82.71962343 -113.19721147 81.04096512 -113.62094116 79.36245728 C-114.73516538 74.9416841 -115.84094542 70.51884047 -116.94500732 66.09552002 C-118.07285005 61.58323803 -119.20862852 57.07295533 -120.34375 52.5625 C-122.5702916 43.71027698 -124.78792168 34.85584743 -127 26 C-121.75601589 21.90389279 -115.75937307 20.25832373 -109.5 18.1875 C-108.8361731 17.96656677 -108.17234619 17.74563354 -107.48840332 17.51800537 C-93.54137038 12.90970693 -79.45673342 9.61256088 -65 7 C-63.94989746 6.80712402 -62.89979492 6.61424805 -61.81787109 6.41552734 C-41.71131126 2.80472037 -20.47313118 0 0 0 Z " fill="#5A658A" transform="translate(178,15)"/>
<path d="M0 0 C2.16796875 0.14453125 4.3359375 0.2890625 6.50390625 0.43359375 C7.18119278 0.47850449 7.85847931 0.52341522 8.55628967 0.56968689 C11.99608343 0.79808216 15.43547699 1.03034893 18.87451172 1.27001953 C51.38196201 3.51433555 83.70241291 3.79215792 116.2109375 1.4375 C121.8195803 1.03855236 127.37895241 0.88190387 133 1 C133.3853894 2.56512329 133.3853894 2.56512329 133.77856445 4.16186523 C134.7421635 8.07098518 135.71059767 11.97889439 136.68041992 15.88647461 C137.09773456 17.57072359 137.51377604 19.2552886 137.9284668 20.94018555 C138.52830518 23.37635227 139.13287042 25.81130662 139.73828125 28.24609375 C140.01035149 29.35760048 140.01035149 29.35760048 140.28791809 30.49156189 C141.22803072 34.25319612 142.28647737 37.91778685 143.55419922 41.58300781 C144.88797132 45.49468273 145.71855316 49.34151027 146.39453125 53.42578125 C148.12115576 63.28560967 150.73242769 72.88599587 153.31958008 82.5480957 C153.93028716 84.83676266 154.53371388 87.12726264 155.13671875 89.41796875 C155.3241716 90.10755173 155.51162445 90.7971347 155.70475769 91.50761414 C156.64550331 95.0868149 157.21285954 98.29660092 157 102 C152.71039681 102.6396695 148.41800224 103.25859133 144.125 103.875 C142.37703125 104.13603516 142.37703125 104.13603516 140.59375 104.40234375 C117.18238422 107.72922205 93.802842 108.30560413 70.20251465 108.19561768 C67.23173088 108.18466844 64.26099214 108.18515339 61.29019165 108.18575573 C58.38690934 108.18548258 55.48365593 108.17998219 52.5803833 108.17275429 C50.56319524 108.16811412 48.54600127 108.16630948 46.52880859 108.16459656 C39.6252989 108.12898277 32.85163778 107.86922926 26 107 C17.24500244 73.45964529 17.24500244 73.45964529 13.46386719 56.61767578 C10.41539831 43.1873146 6.98569919 29.84831373 3.60595703 16.49829102 C3.36828613 15.55603165 3.13061523 14.61377228 2.88574219 13.64295959 C2.43387472 11.85185755 1.98001393 10.06125692 1.52392578 8.27122498 C0 2.22501433 0 2.22501433 0 0 Z " fill="#6A75A8" transform="translate(138,389)"/>
<path d="M0 0 C45.46642275 2.71297681 108.61066179 8.37369727 141.4375 43.5 C145.30380247 48.35484572 147.37339683 53.17148301 146.9375 59.4375 C145.10549135 70.35477605 139.2473533 77.72278023 130.34570312 84.20458984 C120.911148 90.62783449 110.6519215 95.02660245 100 99 C98.89269531 99.42796875 97.78539062 99.8559375 96.64453125 100.296875 C76.84276707 107.44686722 54.23682641 112.67317552 33.2800293 114.53173828 C32.29085007 114.61996857 31.30167084 114.70819885 30.28251648 114.79910278 C29.52928604 114.86539886 28.7760556 114.93169495 28 115 C25.64249182 105.83546374 23.28603859 96.67065699 20.93080807 87.50553513 C19.83627441 83.24640371 18.74142314 78.98735456 17.64575195 74.72851562 C15.14027375 64.98898934 12.64142038 55.24780383 10.15203857 45.50415039 C9.40877662 42.5957535 8.66296608 39.68803363 7.91436768 36.78100586 C6.93724086 32.98597977 5.96999872 29.18847604 5.00390625 25.390625 C4.5856382 23.77471466 4.5856382 23.77471466 4.15892029 22.12615967 C2.30889833 14.80407243 1.03093515 7.48021631 0 0 Z " fill="#3D4A75" transform="translate(250,16)"/>
<path d="M0 0 C0.66 0 1.32 0 2 0 C4.76467663 6.28906947 5.42100317 11.35184103 5.34057617 18.1796875 C5.34123329 19.65910576 5.34123329 19.65910576 5.34190369 21.16841125 C5.33982614 24.40414747 5.31654371 27.63935513 5.29296875 30.875 C5.28736913 33.12800819 5.28310076 35.38102005 5.28010559 37.6340332 C5.26868573 43.54581905 5.23924302 49.45738159 5.20599365 55.36907959 C5.17523116 61.40878275 5.16158705 67.44852222 5.14648438 73.48828125 C5.11437068 85.32561861 5.06320886 97.16279069 5 109 C0.05 109.33 -4.9 109.66 -10 110 C-10.32613281 111.19496094 -10.65226562 112.38992188 -10.98828125 113.62109375 C-11.88218507 116.88969787 -12.79865587 120.1510572 -13.7265625 123.41015625 C-14.44934178 125.95947403 -15.09843165 128.46428904 -15.6484375 131.05859375 C-16.48673636 134.660849 -17.06268304 136.38934867 -20.23046875 138.453125 C-24.93549691 140.53807101 -27.97664792 141.31882896 -33 140 C-35.23242188 138.86083984 -35.23242188 138.86083984 -37.46875 137.4609375 C-38.28730469 136.96335937 -39.10585938 136.46578125 -39.94921875 135.953125 C-41.65324444 134.89887327 -43.35376943 133.83894262 -45.05078125 132.7734375 C-45.86933594 132.2784375 -46.68789063 131.7834375 -47.53125 131.2734375 C-48.63823242 130.58386963 -48.63823242 130.58386963 -49.76757812 129.88037109 C-52.60223663 128.7625038 -54.12781677 129.08961382 -57 130 C-59.06759064 131.58773734 -59.06759064 131.58773734 -60.8125 133.5625 C-61.41707031 134.20316406 -62.02164062 134.84382812 -62.64453125 135.50390625 C-63.31548828 136.24447266 -63.31548828 136.24447266 -64 137 C-67.31975197 132.02037204 -68.67732648 125.96047306 -68 120 C-67.50886719 119.39542969 -67.01773437 118.79085937 -66.51171875 118.16796875 C-63.75532556 114.21500178 -64.26737536 109.61485051 -65 105 C-67.3055697 101.77220242 -68.80001904 100.38440881 -72.56671143 99.17776489 C-75 98 -75 98 -76.08807373 95.87716675 C-76.30489807 94.99972809 -76.52172241 94.12228943 -76.74511719 93.21826172 C-77.00178162 92.22317596 -77.25844604 91.22809021 -77.52288818 90.20285034 C-77.77830383 89.1227066 -78.03371948 88.04256287 -78.296875 86.9296875 C-78.71552826 85.26439499 -78.71552826 85.26439499 -79.14263916 83.56546021 C-80.03154731 80.00655016 -80.89042779 76.44109556 -81.75 72.875 C-82.34322432 70.49433547 -82.93825534 68.11412036 -83.53515625 65.734375 C-84.10315997 63.44570837 -84.66961618 61.15665701 -85.234375 58.8671875 C-85.49788757 57.79918915 -85.76140015 56.7311908 -86.03289795 55.63082886 C-87.36700755 50.08789357 -88.43029413 44.67410039 -89 39 C-88.3694873 38.87061035 -87.73897461 38.7412207 -87.08935547 38.60791016 C-39.36198393 29.31562595 -39.36198393 29.31562595 -1.34375 1.7421875 C-0.67859375 0.87980469 -0.67859375 0.87980469 0 0 Z " fill="#4F5D98" transform="translate(392,192)"/>
<path d="M0 0 C11.22 0 22.44 0 34 0 C38.75066564 18.67287901 38.75066564 18.67287901 40.81640625 26.8125 C42.21013278 32.30412393 43.6043916 37.79560766 45.00244141 43.28613281 C53.84019981 77.99957135 53.84019981 77.99957135 57.70059204 95.10140991 C59.89706541 104.74223414 62.31404134 114.32376764 64.75 123.90625 C64.96204449 124.74052647 65.17408897 125.57480293 65.39255905 126.4343605 C66.92446653 132.45723835 68.4616897 138.47875484 70 144.5 C71.7535373 151.36368542 73.50481133 158.22793653 75.25 165.09375 C75.46046337 165.92142694 75.67092674 166.74910389 75.88776779 167.60186195 C78.75427217 178.89104497 81.48950219 190.19881361 84.06314087 201.55888367 C86.137357 210.70008664 88.47577672 219.75564988 90.91162109 228.80639648 C91.43326023 230.75105391 91.9472215 232.69776579 92.4609375 234.64453125 C92.90638916 236.30512573 92.90638916 236.30512573 93.36083984 237.99926758 C93.95273484 240.77809926 94.12936532 243.17202149 94 246 C90.93824986 246.34189034 87.8759095 246.6735892 84.8125 247 C83.5450293 247.14308594 83.5450293 247.14308594 82.25195312 247.2890625 C77.19881965 247.81897912 72.22999117 248.0499527 67.1472168 248.02734375 C65.99158737 248.023396 64.83595795 248.01944824 63.64530945 248.01538086 C62.77235733 248.01030518 61.89940521 248.00522949 61 248 C53.05896766 217.60105238 45.18854275 187.19671323 37.93103027 156.6260376 C34.45761067 142.01211186 30.87287923 127.43079724 27.1796875 112.87109375 C26.96919329 112.04123774 26.75869907 111.21138172 26.54182625 110.35637856 C24.44296423 102.08638295 22.33656373 93.81832902 20.22184658 85.55237389 C16.0505651 69.24269625 11.99004386 52.92659097 8.26245117 36.50830078 C6.39123899 28.28227873 4.2962863 20.11722889 2.1953125 11.94726562 C1.9065625 10.81095703 1.6178125 9.67464844 1.3203125 8.50390625 C0.93770264 7.01612671 0.93770264 7.01612671 0.54736328 5.49829102 C0 3 0 3 0 0 Z " fill="#4F5D99" transform="translate(178,15)"/>
<path d="M0 0 C7.26753782 5.71020829 14.89190675 13.67254396 16.625 23.0625 C17.83756749 36.38726941 16.30209717 46.80229103 7.5 57.4375 C0.17965118 65.0521342 -8.2101719 69.10672594 -18.67041016 69.35498047 C-32.8066142 69.47328714 -32.8066142 69.47328714 -39.375 65.0625 C-40.06722656 64.61519531 -40.75945312 64.16789062 -41.47265625 63.70703125 C-50.1040311 57.68926897 -55.68800024 50.35313736 -58.375 40.0625 C-59.98390124 28.09433235 -58.24420501 18.2247089 -51.1875 8.3125 C-47.49154272 3.85376004 -43.44713448 0.81618357 -38.375 -1.9375 C-37.61445313 -2.35128906 -36.85390625 -2.76507813 -36.0703125 -3.19140625 C-23.90280665 -8.91611802 -11.27389839 -6.47205278 0 0 Z " fill="#E8E8FE" transform="translate(417.375,366.9375)"/>
<path d="M0 0 C4.45831922 -0.02933699 8.91661318 -0.04691123 13.375 -0.0625 C14.62667969 -0.07087891 15.87835938 -0.07925781 17.16796875 -0.08789062 C18.39902344 -0.09111328 19.63007813 -0.09433594 20.8984375 -0.09765625 C22.57945557 -0.10551147 22.57945557 -0.10551147 24.29443359 -0.11352539 C28.89291382 0.02735571 33.42948332 0.49216081 38 1 C38.27972656 2.15443604 38.55945313 3.30887207 38.84765625 4.49829102 C40.22759066 10.18738025 41.61296502 15.87513814 43 21.5625 C43.25833618 22.62212952 43.51667236 23.68175903 43.78283691 24.77349854 C47.2377257 38.92589307 50.7602301 53.05949949 54.359375 67.17578125 C54.54211472 67.89287577 54.72485443 68.60997028 54.91313171 69.34879494 C56.73117992 76.4818177 58.55348768 83.61372285 60.38598251 90.74304867 C60.90618117 92.76879436 61.42485932 94.79492246 61.94293213 96.82121277 C62.58134181 99.31710643 63.22260476 101.81227253 63.86712646 104.30659485 C64.14912903 105.41117538 64.43113159 106.51575592 64.72167969 107.65380859 C65.09374542 109.10090714 65.09374542 109.10090714 65.47332764 110.57723999 C66 113 66 113 66 116 C62.25164737 116.51287503 58.50112299 117.00783138 54.75 117.5 C53.70585937 117.64308594 52.66171875 117.78617187 51.5859375 117.93359375 C44.34952364 118.8716474 37.2939111 119.1767031 30 119 C29.67 119.66 29.34 120.32 29 121 C27.82473482 116.34996951 26.65314504 111.69903056 25.484375 107.04736328 C25.08977742 105.47877465 24.69432485 103.91040074 24.29785156 102.34228516 C21.79670165 92.44670998 19.42183179 82.53036177 17.15625 72.578125 C13.62268539 57.09891909 9.63681039 41.74003995 5.65185547 26.37207031 C4.71437438 22.75168194 3.78266252 19.12984629 2.8515625 15.5078125 C2.42044662 13.85653854 2.42044662 13.85653854 1.98062134 12.17190552 C1.71969696 11.15498627 1.45877258 10.13806702 1.18994141 9.09033203 C0.95933014 8.20056671 0.72871887 7.31080139 0.49111938 6.39407349 C0 4 0 4 0 0 Z " fill="#5A658A" transform="translate(212,15)"/>
<path d="M0 0 C1.14384489 4.50122738 2.2830497 9.00359388 3.41796875 13.50708008 C3.80471497 15.03897796 4.19272764 16.57055668 4.58203125 18.10180664 C5.14135594 20.30272078 5.69611752 22.50474211 6.25 24.70703125 C6.42499023 25.39150833 6.59998047 26.07598541 6.78027344 26.78120422 C7.48741106 29.60875429 8 32.07154001 8 35 C8.886875 35.226875 9.77375 35.45375 10.6875 35.6875 C14.72864792 37.28870955 16.50671799 38.40674063 19 42 C19.58813281 45.73963692 19.66699555 49.27038322 19 53 C18.23429687 54.01126953 18.23429687 54.01126953 17.453125 55.04296875 C15.5820461 57.56288953 15.80218106 58.69314896 16.25 61.75 C16.35699219 62.62914062 16.46398437 63.50828125 16.57421875 64.4140625 C16.94605717 66.9444556 16.94605717 66.9444556 17.58203125 69.1484375 C18.0625 71.125 18.0625 71.125 18 75 C16.05921123 77.24336163 14.03485582 79.03559272 11.6875 80.84765625 C9.69131474 82.95760361 9.69131474 82.95760361 9.89453125 86.1484375 C11.13723792 92.06192568 15.06965422 97.07843667 18.31445312 102.06054688 C22.11918737 108.21801458 22.11918737 108.21801458 21.51953125 112.15234375 C21.01808594 113.09207031 20.51664062 114.03179687 20 115 C19.52046875 116.81177734 19.52046875 116.81177734 19.03125 118.66015625 C16.38983621 123.00325008 14.18568166 123.46801238 9.41796875 124.74804688 C8.45503906 124.97556641 7.49210937 125.20308594 6.5 125.4375 C5.05560547 125.81938477 5.05560547 125.81938477 3.58203125 126.20898438 C-3.34065448 128 -3.34065448 128 -7 128 C-7.11775284 127.4657843 -7.23550568 126.9315686 -7.35682678 126.38116455 C-10.49906198 112.19035225 -13.95354075 98.0990239 -17.59082031 84.02761841 C-21.86081103 67.4978724 -26.05902271 50.96953504 -29.7890625 34.30859375 C-31.23179983 27.88260852 -32.85682566 21.50280057 -34.52929688 15.13305664 C-35.43670375 11.61157938 -36 8.66166211 -36 5 C-35.20303711 4.88406494 -34.40607422 4.76812988 -33.58496094 4.64868164 C-29.97299861 4.1220468 -26.36149809 3.5923086 -22.75 3.0625 C-20.86861328 2.78889648 -20.86861328 2.78889648 -18.94921875 2.50976562 C-17.14130859 2.24389648 -17.14130859 2.24389648 -15.296875 1.97265625 C-14.18666992 1.81031494 -13.07646484 1.64797363 -11.93261719 1.48071289 C-9.12374884 1.07076473 -9.12374884 1.07076473 -6.91894531 0.43920898 C-4.57749269 -0.09670364 -2.3935922 -0.06648867 0 0 Z " fill="#6A75A8" transform="translate(309,255)"/>
<path d="M0 0 C11.22 0 22.44 0 34 0 C38.75066564 18.67287901 38.75066564 18.67287901 40.81640625 26.8125 C42.21013278 32.30412393 43.6043916 37.79560766 45.00244141 43.28613281 C49.99491021 62.89582863 54.91992775 82.50239799 59.3571167 102.24664307 C60.31299893 106.34051979 61.37039552 110.4077343 62.43301392 114.47506714 C63 117 63 117 63 120 C51.78 120 40.56 120 29 120 C27.01703331 112.24240824 25.0347494 104.48468064 23.05781555 96.72555542 C22.13626368 93.10928749 21.21375236 89.49327174 20.28857422 85.87792969 C16.09629013 69.49238865 12.03913105 53.09376299 8.28662109 36.60058594 C6.40370416 28.34459938 4.30421762 20.14807105 2.1953125 11.94726562 C1.9065625 10.81095703 1.6178125 9.67464844 1.3203125 8.50390625 C0.93770264 7.01612671 0.93770264 7.01612671 0.54736328 5.49829102 C0 3 0 3 0 0 Z " fill="#3D4A75" transform="translate(178,15)"/>
<path d="M0 0 C4.18317711 15.55617861 8.17585539 31.15996357 12.15155411 46.77024841 C13.321186 51.36256021 14.49415009 55.95396553 15.67480469 60.54345703 C16.82795095 65.0262977 17.97290641 69.51115623 19.11211395 73.99755859 C19.54461826 75.6950788 19.97998622 77.39187219 20.41834259 79.08789062 C21.02925315 81.45381012 21.62958729 83.82218354 22.22753906 86.19140625 C22.40826965 86.88138199 22.58900024 87.57135773 22.77520752 88.28224182 C23.85135002 92.60438518 24.16351836 96.55410256 24 101 C19.689159 101.67769467 15.37610416 102.34014117 11.0625 103 C9.85013672 103.19078125 8.63777344 103.3815625 7.38867188 103.578125 C0.84245816 104.57158833 -5.37933821 105.22854496 -12 105 C-16.06354623 89.53120635 -20.06032297 74.06912804 -23.55566406 58.46044922 C-25.11786733 51.58191895 -26.81808131 44.74774076 -28.59375 37.921875 C-28.8220047 37.04281494 -29.0502594 36.16375488 -29.28543091 35.25805664 C-30.42939558 30.85988366 -31.58315739 26.46455266 -32.74951172 22.07226562 C-33.17435666 20.44927188 -33.59900738 18.82622727 -34.0234375 17.203125 C-34.22312134 16.46358582 -34.42280518 15.72404663 -34.62854004 14.96209717 C-35.68838822 10.87985434 -36.20939927 7.21612609 -36 3 C-31.83779186 2.56887321 -27.67519633 2.14176305 -23.51220703 1.71826172 C-22.09803324 1.57383958 -20.6839682 1.42834813 -19.27001953 1.28173828 C-17.22977371 1.07038089 -15.18915903 0.86295758 -13.1484375 0.65625 C-11.92302246 0.53056641 -10.69760742 0.40488281 -9.43505859 0.27539062 C-6.26883834 0.02155292 -3.17390316 -0.01961325 0 0 Z " fill="#6B75A8" transform="translate(278,131)"/>
<path d="M0 0 C0.01981934 0.77714355 0.03963867 1.55428711 0.06005859 2.35498047 C0.15507009 5.86200691 0.26484559 9.36841794 0.375 12.875 C0.4059375 14.09832031 0.436875 15.32164062 0.46875 16.58203125 C0.50742187 17.74863281 0.54609375 18.91523438 0.5859375 20.1171875 C0.63306885 21.73536377 0.63306885 21.73536377 0.68115234 23.38623047 C0.74676322 26.15761654 0.74676322 26.15761654 3 28 C5.46164715 28.7536077 5.46164715 28.7536077 8.33984375 29.33203125 C9.9340918 29.69458008 9.9340918 29.69458008 11.56054688 30.06445312 C13.80567479 30.56178337 16.05310628 31.04882983 18.30273438 31.52539062 C19.36685547 31.77095703 20.43097656 32.01652344 21.52734375 32.26953125 C22.50437256 32.48198486 23.48140137 32.69443848 24.48803711 32.91333008 C27.75388817 34.32613045 28.46839604 35.84113952 30 39 C30.38067627 39.6919043 30.76135254 40.38380859 31.15356445 41.09667969 C32.66034923 44.58176012 33.40603261 46.85035468 32.11083984 50.51757812 C30.59651101 53.20493528 28.95300927 55.7207699 27.1875 58.25 C26.02567542 59.97803831 24.87293335 61.71222656 23.73046875 63.453125 C22.94772583 64.58476074 22.94772583 64.58476074 22.14916992 65.73925781 C20.78300168 68.42689706 20.6032162 70.02216322 21 73 C22.80960003 75.36594956 24.55494998 77.39080009 26.625 79.5 C27.14707031 80.05558594 27.66914063 80.61117187 28.20703125 81.18359375 C29.77225511 82.82611261 31.37063352 84.42121032 33 86 C33.5269043 86.51304687 34.05380859 87.02609375 34.59667969 87.5546875 C36.29474196 89.15876702 36.29474196 89.15876702 39 91 C42.23895375 90.63638903 44.57941018 89.18194133 47.30078125 87.4609375 C48.11353516 86.96335937 48.92628906 86.46578125 49.76367188 85.953125 C51.45795108 84.90410002 53.1455608 83.84422311 54.82617188 82.7734375 C58.89860863 80.30490441 61.11933647 78.97752968 65.98046875 79.1015625 C69 80 69 80 71 81 C71 81.66 71 82.32 71 83 C55.94387118 90.71567972 40.04609727 95.57766224 23.6875 99.75 C22.59852417 100.029646 22.59852417 100.029646 21.48754883 100.31494141 C13.40909604 102.29091483 5.19345219 103.60017916 -3 105 C-4.67574882 98.34801633 -6.34769475 91.69508494 -8.01708984 85.04150391 C-8.58458852 82.78152198 -9.1529344 80.52175261 -9.72216797 78.26220703 C-10.54361102 75.00089109 -11.36193155 71.73880465 -12.1796875 68.4765625 C-12.43185028 67.47823395 -12.68401306 66.4799054 -12.94381714 65.45132446 C-14.29976717 60.02837744 -15.52759184 54.60473691 -16.57772827 49.11399841 C-17.1636393 46.18078055 -17.94435015 43.31734486 -18.75 40.4375 C-20.69654828 33.25591657 -22.49526176 26.04328529 -24.25 18.8125 C-24.52038086 17.71284912 -24.79076172 16.61319824 -25.06933594 15.48022461 C-25.31973633 14.4413208 -25.57013672 13.40241699 -25.828125 12.33203125 C-26.0540332 11.40108643 -26.27994141 10.4701416 -26.51269531 9.51098633 C-27 7 -27 7 -27 3 C-23.43826523 2.4944461 -19.87550181 1.99653886 -16.3125 1.5 C-14.80139648 1.28537109 -14.80139648 1.28537109 -13.25976562 1.06640625 C-11.79506836 0.86337891 -11.79506836 0.86337891 -10.30078125 0.65625 C-9.40528564 0.53056641 -8.50979004 0.40488281 -7.5871582 0.27539062 C-5.03602639 0.00383484 -2.5633257 -0.04847897 0 0 Z " fill="#4F5D99" transform="translate(298,386)"/>
<path d="M0 0 C11.07878052 42.81862902 11.07878052 42.81862902 14.91894531 59.91577148 C17.04687505 69.3567072 19.410352 78.73409999 21.81738281 88.10717773 C22.10194336 89.22552002 22.38650391 90.3438623 22.6796875 91.49609375 C23.06229736 92.98387329 23.06229736 92.98387329 23.45263672 94.50170898 C24 97 24 97 24 100 C15.84211555 101.80484169 7.77205152 103.23715214 -0.5390625 104.1015625 C-1.35866455 104.18962158 -2.1782666 104.27768066 -3.02270508 104.3684082 C-5.01481048 104.58200375 -7.00736048 104.79144617 -9 105 C-11.2283716 96.00068574 -13.45449531 87.00081888 -15.6780405 78.0003109 C-16.7114989 73.81733536 -17.74562403 69.63452745 -18.78149414 65.45214844 C-24.01075193 44.33632137 -29.12877155 23.20161573 -34 2 C-31.32501712 1.75260274 -28.65002959 1.50525869 -25.9750061 1.25830078 C-23.93387572 1.06916198 -21.89300704 0.87719326 -19.85229492 0.68359375 C-13.21595416 0.08903047 -6.66150747 -0.11841218 0 0 Z " fill="#4F5D98" transform="translate(273,261)"/>
<path d="M0 0 C1.64602963 0.24870428 3.29179695 0.49914382 4.9375 0.75 C6.13503906 0.93175781 7.33257812 1.11351562 8.56640625 1.30078125 C11.83046485 1.80614001 15.0852184 2.35516468 18.33984375 2.91796875 C45.96516398 7.63407144 73.29244575 9.46158797 101.26013184 9.66955566 C104.9762677 9.70018144 108.69221344 9.74641021 112.40820312 9.79101562 C119.60537097 9.87526332 126.80255597 9.9433632 134 10 C134.48126962 11.42884766 134.96124229 12.8581322 135.44067383 14.28759766 C135.70809891 15.08348297 135.97552399 15.87936829 136.25105286 16.69937134 C137.18389996 19.56490705 137.96211561 22.45043437 138.6875 25.375 C139.06455078 26.87160156 139.06455078 26.87160156 139.44921875 28.3984375 C140 31 140 31 140 34 C134.07085041 35.0210148 128.28669834 35.1761876 122.27734375 35.203125 C121.23609344 35.21013931 120.19484314 35.21715363 119.12203979 35.22438049 C115.72714954 35.24196417 112.33243431 35.24824514 108.9375 35.25 C107.19235611 35.25101212 107.19235611 35.25101212 105.41195679 35.25204468 C73.25980361 35.22251818 41.65031068 32.76777148 10 27 C9.25186035 26.89510254 8.5037207 26.79020508 7.73291016 26.68212891 C6 26 6 26 4.81689453 24.19921875 C4.02683912 22.07225547 3.42123274 20.02672225 2.9296875 17.8125 C2.75566406 17.03132813 2.58164063 16.25015625 2.40234375 15.4453125 C2.22832031 14.63835937 2.05429688 13.83140625 1.875 13 C1.69324219 12.19304687 1.51148437 11.38609375 1.32421875 10.5546875 C0.5169209 6.87632285 0 3.80445526 0 0 Z " fill="#5B668B" transform="translate(99,229)"/>
<path d="M0 0 C3.85921938 1.57227456 6.07740557 4.07740557 9 7 C34.58034883 30.30654004 78.66774241 38.42125574 112 42 C112.84075218 45.41488492 113.67129993 48.83217213 114.5 52.25 C114.85771484 53.70212891 114.85771484 53.70212891 115.22265625 55.18359375 C115.44824219 56.11816406 115.67382812 57.05273438 115.90625 58.015625 C116.11572266 58.87446289 116.32519531 59.73330078 116.54101562 60.61816406 C117 63 117 63 117 67 C81.01070553 65.75253745 29.908637 55.59899617 4.0625 28.0625 C-0.05540064 23.0042134 -3.13059865 17.49895418 -3.4375 10.875 C-2.95298385 6.58357128 -1.91564968 3.83129936 0 0 Z " fill="#3D4A75" transform="translate(20,321)"/>
<path d="M0 0 C1.58649888 1.21939639 3.15030741 2.46900617 4.6875 3.75 C5.39648438 4.32363281 6.10546875 4.89726562 6.8359375 5.48828125 C13.93545727 11.83976733 20.01706986 22.14501033 20.86450195 31.7578125 C21.33981958 48.17994172 19.22724012 60.47643371 7.65625 72.9375 C-2.62499157 82.77173106 -15.04763933 87.34922108 -29.1328125 87.0625 C-42.67151306 85.73191518 -54.68848866 79.19154491 -63.3125 68.75 C-69.75128706 59.71233743 -72.88591104 50.96940789 -72.75 39.875 C-72.74170166 38.99658447 -72.73340332 38.11816895 -72.72485352 37.21313477 C-72.54805742 30.41246217 -71.56541794 24.80081463 -68.3125 18.75 C-67.838125 17.83089844 -67.36375 16.91179687 -66.875 15.96484375 C-59.90026548 3.77582453 -49.54114433 -2.6391289 -36.4296875 -6.85546875 C-23.83723994 -9.20203186 -10.68778282 -7.10892099 0 0 Z M-55.3125 14.75 C-62.89480584 24.92790846 -64.67138924 35.33784786 -63.3125 47.75 C-60.84359272 58.26083344 -54.10293015 66.85070874 -45.125 72.75 C-39.13594041 76.29907235 -33.3889353 77.13931119 -26.5625 77.125 C-25.76553711 77.12338867 -24.96857422 77.12177734 -24.14746094 77.12011719 C-17.85958724 76.98949333 -12.82313616 75.90050315 -7.3125 72.75 C-6.28125 72.193125 -5.25 71.63625 -4.1875 71.0625 C3.98738813 64.48704651 10.55369949 56.42513421 11.95361328 45.71386719 C12.965055 33.25538451 10.78294066 23.56354003 2.66015625 13.78515625 C-5.06741366 5.81275244 -15.23667439 1.63628089 -26.25 1.1875 C-37.70511293 1.57559672 -47.34792607 6.60119215 -55.3125 14.75 Z " fill="#51609B" transform="translate(422.3125,359.25)"/>
<path d="M0 0 C2.3525248 9.18673962 4.69990664 18.37477339 7.04072571 27.56450272 C8.12781199 31.83157617 9.21666718 36.09818188 10.30957031 40.36376953 C11.3641313 44.47997898 12.4140385 48.59734969 13.46072388 52.71556854 C13.86095519 54.28686565 14.26286412 55.85773642 14.66647339 57.42816925 C15.23130929 59.62711593 15.79017206 61.82750013 16.34765625 64.02832031 C16.66742432 65.28074524 16.98719238 66.53317017 17.31665039 67.82354736 C18 71 18 71 18 75 C12.17234915 74.39415511 7.20212694 72.23392107 1.875 69.9375 C0.94300781 69.53700439 0.01101562 69.13650879 -0.94921875 68.72387695 C-8.22018218 65.51502079 -14.67986648 61.85444466 -21 57 C-21.85207031 56.36578125 -22.70414063 55.7315625 -23.58203125 55.078125 C-26.09477597 52.91854473 -27.81753648 50.78970523 -29.6875 48.0625 C-30.26886719 47.22847656 -30.85023437 46.39445312 -31.44921875 45.53515625 C-34.79882432 40.05935268 -35.95670164 35.34444246 -35 29 C-30.29268964 14.85617444 -18.21876276 7.96826265 -5.7890625 1.26953125 C-3 0 -3 0 0 0 Z " fill="#3D4A75" transform="translate(52,41)"/>
<path d="M0 0 C0.66 0 1.32 0 2 0 C4.65914798 6.31547644 6.48020437 11.07989831 3.93359375 17.82421875 C-4.24961707 35.59538775 -21.77882581 44.2551641 -39.39208984 50.90283203 C-49.09662098 54.41282193 -58.9398248 57.38502039 -68.9375 59.9375 C-69.75951904 60.14906738 -70.58153809 60.36063477 -71.4284668 60.57861328 C-75.71358878 61.62528584 -79.55233549 62.23559058 -84 62 C-84.83698495 58.54253984 -85.66896676 55.08389511 -86.5 51.625 C-86.73847656 50.64015625 -86.97695313 49.6553125 -87.22265625 48.640625 C-87.44824219 47.69960937 -87.67382812 46.75859375 -87.90625 45.7890625 C-88.11572266 44.91975098 -88.32519531 44.05043945 -88.54101562 43.15478516 C-89 41 -89 41 -89 39 C-88.3694873 38.87061035 -87.73897461 38.7412207 -87.08935547 38.60791016 C-39.36198393 29.31562595 -39.36198393 29.31562595 -1.34375 1.7421875 C-0.67859375 0.87980469 -0.67859375 0.87980469 0 0 Z " fill="#3D4A75" transform="translate(392,192)"/>
<path d="M0 0 C3 1 3 1 5.3125 4 C19.19852436 20.64280861 47.920513 29.65499009 68.37060547 33.44580078 C77.19629156 35.1260646 77.19629156 35.1260646 79.609375 37.75 C80.4945701 40.20686802 80.7479258 42.39888653 81 45 C81.54848596 47.46149795 82.11173148 49.91974041 82.6875 52.375 C83.39163015 55.6898281 84 58.61272601 84 62 C76.78943722 61.40847927 70.14056708 59.90953089 63.1875 57.9375 C62.09453613 57.62804443 61.00157227 57.31858887 59.87548828 56.99975586 C49.61603504 54.01506551 39.73409429 50.40198804 30 46 C29.30165039 45.68450195 28.60330078 45.36900391 27.88378906 45.04394531 C15.51220928 39.30700418 3.37279144 31.0574203 -2.25 18.125 C-3.951049 11.03729581 -3.1818985 6.36379699 0 0 Z " fill="#3D4A75" transform="translate(20,192)"/>
<path d="M0 0 C3.89267703 1.09194694 7.72196932 2.36354401 11.5625 3.625 C21.68361135 6.84113601 31.83530224 9.5410961 42.1875 11.875 C44.06320679 12.30353271 44.06320679 12.30353271 45.97680664 12.74072266 C53.5503034 14.41080918 61.05249414 15.61629791 68.7512207 16.47705078 C72.96422145 17.15520871 75.95782916 17.95782916 79 21 C79.69048961 28.13505931 79.69048961 28.13505931 77.31762695 31.10742188 C73.13032425 34.52678041 68.15604282 33.38158299 63 33 C59.19722666 32.60833712 55.45211568 32.03654033 51.6875 31.375 C50.66205078 31.1982373 49.63660156 31.02147461 48.58007812 30.83935547 C-0.42041807 22.0357495 -0.42041807 22.0357495 -10.703125 10.0078125 C-12.38390859 7.4056355 -12.53270917 6.04405237 -12 3 C-8.81403365 -2.04444672 -5.22533531 -1.09387222 0 0 Z " fill="#E6E6FC" transform="translate(58,289)"/>
<path d="M0 0 C2.99582158 0.93518425 5.97524109 1.91304223 8.95458984 2.89941406 C19.03296338 6.112872 29.14065998 8.83062474 39.45458984 11.14941406 C40.44724854 11.37309158 40.44724854 11.37309158 41.45996094 11.60128784 C50.08882142 13.52650008 58.60615215 15.10735471 67.43115234 15.69238281 C71.03852086 16.41677353 72.77630835 17.65124348 75.32958984 20.27441406 C75.99365234 22.27441406 75.99365234 22.27441406 75.95458984 24.27441406 C75.97392578 25.26441406 75.97392578 25.26441406 75.99365234 26.27441406 C74.93909123 29.450504 73.13057039 30.55221557 70.32958984 32.27441406 C65.64698007 32.73047071 60.98358292 31.87517111 56.32958984 31.27441406 C55.61383789 31.19304199 54.89808594 31.11166992 54.16064453 31.02783203 C33.5379403 28.66415975 0.73190573 24.83113913 -14.67041016 9.27441406 C-15.98291016 5.64941406 -15.98291016 5.64941406 -15.67041016 2.27441406 C-12.30998062 -3.83545782 -5.68854362 -1.54565292 0 0 Z " fill="#E5E6FC" transform="translate(61.67041015625,418.7255859375)"/>
<path d="M0 0 C19.12927648 6.22711749 38.69619092 10.96800721 58.67114258 13.45776367 C65.79610991 14.42602694 65.79610991 14.42602694 69.09375 16.734375 C71.37124089 20.36247095 70.9076269 22.64385792 70.4375 26.875 C68.86641324 29.08152631 67.96971207 29.77611907 65.29296875 30.2734375 C41.44307671 30.06392161 17.33935442 24.44382528 -4.8125 15.8125 C-5.60350098 15.50868408 -6.39450195 15.20486816 -7.20947266 14.8918457 C-12.25802619 12.80595259 -17.07150314 10.18744825 -20.5625 5.875 C-20.76526287 1.88733015 -20.45997767 -0.06132276 -17.875 -3.125 C-12.3576132 -5.51089699 -5.40169863 -1.81561045 0 0 Z " fill="#E7E8FD" transform="translate(66.5625,163.125)"/>
<path d="M0 0 C0.84357963 3.059771 1.6730202 6.1232046 2.5 9.1875 C2.73847656 10.05181641 2.97695313 10.91613281 3.22265625 11.80664062 C3.44824219 12.64775391 3.67382812 13.48886719 3.90625 14.35546875 C4.11572266 15.12528076 4.32519531 15.89509277 4.54101562 16.68823242 C5.03538729 19.17823523 5.07833519 21.46781499 5 24 C-6.05838521 25.23483464 -16.8616024 26.26519994 -28 26 C-29.98 18.08 -31.96 10.16 -34 2 C-30.060625 1.67 -26.12125 1.34 -22.0625 1 C-20.22764038 0.84337891 -20.22764038 0.84337891 -18.35571289 0.68359375 C-12.21202282 0.180969 -6.16387304 -0.10458321 0 0 Z " fill="#3D4A75" transform="translate(267,237)"/>
<path d="M0 0 C0.67561372 2.5395837 1.34065828 5.08118835 2 7.625 C2.19078125 8.33785156 2.3815625 9.05070312 2.578125 9.78515625 C3.63422118 13.8963878 4.60005249 17.73712709 4 22 C0.87466872 25.78549484 -4.02858058 25.99233905 -8.625 26.6875 C-9.38167969 26.81705078 -10.13835937 26.94660156 -10.91796875 27.08007812 C-16.63867343 27.99481009 -22.21404392 28.14369851 -28 28 C-28.84109099 24.75195713 -29.67150656 21.50127696 -30.5 18.25 C-30.73847656 17.32960938 -30.97695313 16.40921875 -31.22265625 15.4609375 C-31.44824219 14.57148438 -31.67382812 13.68203125 -31.90625 12.765625 C-32.11572266 11.94868164 -32.32519531 11.13173828 -32.54101562 10.29003906 C-33 8 -33 8 -33 4 C-28.94368188 3.42684118 -24.88687593 2.85728294 -20.82958984 2.29101562 C-19.45022017 2.09798808 -18.07098628 1.90398762 -16.69189453 1.70898438 C-14.70641719 1.42841223 -12.72040119 1.15166036 -10.734375 0.875 C-9.54038086 0.70742188 -8.34638672 0.53984375 -7.11621094 0.3671875 C-4 0 -4 0 0 0 Z " fill="#3D4A75" transform="translate(298,361)"/>
<path d="M0 0 C5.18681081 7.83243243 5.18681081 7.83243243 4.5 12.125 C4.005 13.07375 3.51 14.0225 3 15 C2.690625 16.14339844 2.38125 17.28679687 2.0625 18.46484375 C0.98447521 20.99886746 0.30908678 21.83861594 -2.16210938 23.12890625 C-4.92141721 24.04250258 -7.67140272 24.76916343 -10.5 25.4375 C-11.46292969 25.69208984 -12.42585938 25.94667969 -13.41796875 26.20898438 C-20.34065448 28 -20.34065448 28 -24 28 C-24.67189656 25.08444885 -25.33769308 22.16773049 -26 19.25 C-26.19078125 18.425 -26.3815625 17.6 -26.578125 16.75 C-26.75859375 15.95078125 -26.9390625 15.1515625 -27.125 14.328125 C-27.29257812 13.5949707 -27.46015625 12.86181641 -27.6328125 12.10644531 C-28 10 -28 10 -28 6 C-23.70915318 4.99645963 -19.41719284 3.99776629 -15.125 3 C-13.90167969 2.71382813 -12.67835938 2.42765625 -11.41796875 2.1328125 C-10.25136719 1.86210937 -9.08476562 1.59140625 -7.8828125 1.3125 C-6.80402832 1.06113281 -5.72524414 0.80976563 -4.61376953 0.55078125 C-2 0 -2 0 0 0 Z " fill="#5B668C" transform="translate(326,355)"/>
<path d="M0 0 C3.42484369 2.28322912 4.97163392 4.19326784 6.8125 7.875 C7.4631249 13.07999921 6.722872 16.509442 3.8125 20.875 C-0.06552868 24.30209511 -3.15488491 25.54895498 -8.23046875 25.2578125 C-11.61498526 24.59577135 -13.63230429 23.13307993 -16.1875 20.875 C-19.097872 16.509442 -19.8381249 13.07999921 -19.1875 7.875 C-14.90138553 -0.37973899 -8.93720649 -3.15430817 0 0 Z " fill="#79D281" transform="translate(366.1875,149.125)"/>
<path d="M0 0 C4.75734783 2.42531458 7.71438001 5.15448563 10 10 C10.33154765 14.57697493 9.59700708 17.99788097 7.25 21.9375 C3.23213127 25.62054633 -0.52482931 26.52136525 -6.00390625 26.38671875 C-10.27617284 25.55901935 -12.80639157 22.57339293 -15.375 19.1875 C-16.83795646 14.06715237 -16.68592776 10.34645078 -14.3125 5.6875 C-10.01852417 0.69720376 -6.62840052 -0.8140141 0 0 Z " fill="#EC6D6B" transform="translate(273,425)"/>
<path d="M0 0 C3.42484369 2.28322912 4.97163392 4.19326784 6.8125 7.875 C7.4611549 13.06423924 6.7866633 16.55766618 3.8125 20.875 C-0.11766743 23.9405306 -2.74752794 25.22776854 -7.75 25 C-11.99754683 24.30296667 -14.24823328 22.59118931 -17.09375 19.4453125 C-19.64135908 15.78767375 -19.55176177 12.17328893 -19.1875 7.875 C-14.90138553 -0.37973899 -8.93720649 -3.15430817 0 0 Z " fill="#79D381" transform="translate(366.1875,278.125)"/>
<path d="M0 0 C3.20750829 1.62983145 5.25012751 3.9774466 7.375 6.875 C8.75785693 11.57671357 8.57576982 14.93071319 6.25 19.25 C3.54811571 22.55230302 1.66835961 24.70163464 -2.62109375 25.46875 C-10.2468119 25.55336268 -10.2468119 25.55336268 -14.0625 22.75 C-14.701875 21.8425 -15.34125 20.935 -16 20 C-16.433125 19.401875 -16.86625 18.80375 -17.3125 18.1875 C-18.40596521 14.70829251 -18.77817334 11.54794286 -18 8 C-13.39397752 0.62471247 -8.53216647 -1.17775304 0 0 Z " fill="#ED6D6B" transform="translate(275,168)"/>
<path d="M0 0 C3.96661775 1.55583842 6.60259587 3.4038938 9 7 C9.64817054 11.34615406 10.00465176 15.9666809 8.01953125 19.984375 C4.6444964 24.17980294 1.85570312 25.79381076 -3.375 26.375 C-8.6151217 25.83291844 -11.48600311 23.7663297 -14.875 19.8125 C-16.48942639 15.77643403 -16.92637226 12.27444209 -16 8 C-12.00496175 1.42712362 -7.76479035 -1.03530538 0 0 Z " fill="#F9CD50" transform="translate(319,290)"/>
<path d="M0 0 C3.19952543 1.64883519 5.24786614 3.97436292 7.375 6.875 C8.75017467 11.55059389 8.55896687 14.92347121 6.3125 19.25 C3.43357872 22.67358206 1.39639683 24.55321415 -3.07421875 25.38671875 C-7.68716774 25.73915119 -10.39880657 25.16626493 -14 22.1875 C-17.346111 19.05052093 -17.9501109 16.77328107 -18.25 12.125 C-18.18676922 8.29602525 -17.49929373 6.01638899 -15 3 C-10.66216577 -0.81203614 -5.49824726 -0.95009713 0 0 Z " fill="#EA524F" transform="translate(275,297)"/>
<path d="M0 0 C3.15591067 2.58210873 5.40902301 4.5280662 6.21875 8.6171875 C6.2730953 12.97839788 6.3000512 16.24129387 3.5 19.75 C-0.13704783 23.05640712 -1.74006112 24.08222901 -6.625 24.625 C-11.8651217 24.08291844 -14.73600311 22.0163297 -18.125 18.0625 C-19.73123136 14.04692159 -20.05996194 10.50979982 -19.25 6.25 C-17.57041513 3.10411087 -15.25152647 0.98445275 -12.375 -1.125 C-7.67328643 -2.50785693 -4.31928681 -2.32576982 0 0 Z " fill="#FAC52F" transform="translate(322.25,162.75)"/>
<path d="M0 0 C2.27523595 0.36968827 4.54523407 0.77171972 6.8125 1.1875 C8.07707031 1.40792969 9.34164063 1.62835938 10.64453125 1.85546875 C14 3 14 3 15.76171875 5.05078125 C16.17035156 6.02402344 16.57898438 6.99726563 17 8 C17.33128906 8.66338379 17.66257812 9.32676758 18.00390625 10.01025391 C19.4576392 13.33857549 20.36167897 15.74823725 19.33056641 19.31689453 C18.1300411 21.68799546 16.79225575 23.85543946 15.3125 26.0625 C14.83876953 26.83271484 14.36503906 27.60292969 13.87695312 28.39648438 C11.36699633 32.37499535 11.36699633 32.37499535 10 34 C9.34 34 8.68 34 8 34 C6.85767781 29.4800802 5.71842429 24.95940243 4.58203125 20.43798828 C4.19485774 18.89936336 3.80684051 17.36095049 3.41796875 15.82275391 C2.85976756 13.61415684 2.30458638 11.40481963 1.75 9.1953125 C1.57500977 8.50567413 1.40001953 7.81603577 1.21972656 7.10549927 C0 2.22774341 0 2.22774341 0 0 Z " fill="#6A76A9" transform="translate(311,417)"/>
<path d="M0 0 C1.010625 0.86625 2.02125 1.7325 3.0625 2.625 C3.69929688 3.16511719 4.33609375 3.70523437 4.9921875 4.26171875 C6.31233551 5.40464844 7.61040573 6.57368007 8.8828125 7.76953125 C9.47835938 8.31996094 10.07390625 8.87039063 10.6875 9.4375 C11.49767578 10.20900391 11.49767578 10.20900391 12.32421875 10.99609375 C13.94360088 12.20789087 13.94360088 12.20789087 15.8359375 11.72143555 C18.25771291 10.91408601 20.14367065 9.82510119 22.30078125 8.4609375 C23.11353516 7.96335937 23.92628906 7.46578125 24.76367188 6.953125 C26.45795108 5.90410002 28.1455608 4.84422311 29.82617188 3.7734375 C33.89860863 1.30490441 36.11933647 -0.02247032 40.98046875 0.1015625 C44 1 44 1 46 2 C46 2.66 46 3.32 46 4 C37.36105001 8.42712546 28.61405623 12.00377697 19.375 15 C17.95356689 15.47191772 17.95356689 15.47191772 16.50341797 15.95336914 C15.60252441 16.23688232 14.70163086 16.52039551 13.7734375 16.8125 C12.97341309 17.06644531 12.17338867 17.32039063 11.34912109 17.58203125 C9 18 9 18 4 17 C2.68 11.39 1.36 5.78 0 0 Z " fill="#6874A9" transform="translate(323,465)"/>
<path d="M0 0 C4.98931981 1.27633763 8.02760577 2.71625538 11 7 C11.70594667 10.78592367 11.9161397 14.2492163 11 18 C8.4609375 20.84375 8.4609375 20.84375 6 23 C3.76543688 15.37428218 1.61088355 7.78593716 0 0 Z " fill="#F9C531" transform="translate(317,290)"/>
<path d="M0 0 C5.75 0.875 5.75 0.875 8 2 C8 2.66 8 3.32 8 4 C6.03533587 5.06775224 4.03144641 6.06553465 2 7 C1.34 6.67 0.68 6.34 0 6 C0 4.02 0 2.04 0 0 Z " fill="#50609C" transform="translate(361,465)"/>
</svg>
